<svg width="72" height="72" viewBox="0 0 72 72" fill="none" xmlns="http://www.w3.org/2000/svg">
<g clip-path="url(#clip0_3940_2323)">
<path d="M55.9943 26.2087C55.9943 24.9787 55.8905 23.7537 55.5968 22.5562C55.0693 20.375 53.8255 18.7087 51.9643 17.485C51.0068 16.86 49.953 16.4762 48.833 16.2737C47.973 16.1175 47.1018 16.0462 46.2293 16.0262C46.1643 16.02 46.093 16.0062 46.0205 16H25.9818C25.728 16.02 25.4743 16.0325 25.2205 16.045C23.9768 16.1162 22.7405 16.2463 21.568 16.715C19.3418 17.5937 17.733 19.13 16.7955 21.3437C16.4705 22.0925 16.3068 22.8862 16.1905 23.6937C16.093 24.345 16.0405 25.0025 16.0218 25.66C16.0218 25.7125 16.0093 25.7637 16.0093 25.8162V46.1875C16.0218 46.4225 16.0355 46.6562 16.048 46.8912C16.133 48.2525 16.308 49.6 16.8818 50.85C17.963 53.2137 19.7793 54.7687 22.273 55.5175C22.9693 55.7325 23.6993 55.83 24.428 55.895C25.353 55.9862 26.2768 55.9987 27.2018 55.9987H45.5868C46.4593 55.9987 47.3318 55.94 48.2043 55.83C49.578 55.6537 50.8668 55.25 52.033 54.4825C53.433 53.5575 54.488 52.3337 55.1643 50.8037C55.4768 50.1 55.653 49.3525 55.783 48.5962C55.9718 47.47 56.0105 46.33 56.0105 45.1912C56.0043 38.8625 56.0105 32.535 56.0043 26.2062L55.9943 26.2087ZM45.2905 32.855V42.3737C45.2905 43.07 45.193 43.7537 44.8805 44.385C44.3993 45.3675 43.618 45.9862 42.5693 46.2862C41.9893 46.455 41.3905 46.5462 40.7855 46.5725C39.203 46.6512 37.8293 45.5762 37.5493 44.0137C37.308 42.725 37.9268 41.305 39.2805 40.6412C39.8143 40.3812 40.3943 40.225 40.973 40.1075C41.6043 39.9712 42.2355 39.8475 42.8605 39.7037C43.323 39.6 43.6218 39.32 43.713 38.8437C43.7393 38.74 43.7455 38.6287 43.7455 38.525C43.7455 35.4975 43.7455 32.47 43.7455 29.45C43.7455 29.3462 43.7255 29.2412 43.7005 29.1437C43.6355 28.89 43.453 28.74 43.193 28.7525C42.9255 28.765 42.6655 28.8112 42.4055 28.8637C41.1355 29.1112 39.8668 29.365 38.603 29.625L32.438 30.8687C32.4118 30.875 32.3793 30.8887 32.353 30.8887C31.8905 31.0187 31.728 31.2275 31.708 31.7087C31.7018 31.78 31.708 31.8525 31.708 31.9237C31.7018 36.26 31.708 40.5962 31.7018 44.9312C31.7018 45.635 31.623 46.325 31.3443 46.975C30.8818 48.0425 30.0618 48.7137 28.9555 49.0325C28.3693 49.2012 27.7705 49.3 27.158 49.3187C25.563 49.3775 24.2343 48.3162 23.9618 46.7475C23.7268 45.3937 24.3455 43.935 25.8818 43.2837C26.4805 43.0362 27.0993 42.9 27.7305 42.77C28.2055 42.6725 28.688 42.575 29.163 42.4775C29.8005 42.3412 30.133 41.9375 30.1655 41.2862V41.0387C30.1655 36.1037 30.1655 31.1687 30.1655 26.2337C30.1655 26.025 30.1918 25.8175 30.2368 25.615C30.3543 25.14 30.693 24.8662 31.148 24.755C31.5718 24.6437 32.008 24.5662 32.4368 24.475C33.6605 24.2275 34.878 23.98 36.1018 23.7387L39.8843 22.97C41.0043 22.7487 42.1168 22.5212 43.2368 22.3C43.6018 22.2287 43.973 22.15 44.343 22.1237C44.8568 22.0787 45.2155 22.4037 45.268 22.925C45.2805 23.0487 45.288 23.1725 45.288 23.2962C45.288 26.48 45.288 29.6637 45.288 32.8475L45.2905 32.855Z" fill="#F3F3F3"/>
</g>
<defs>
<clipPath id="clip0_3940_2323">
<rect width="40" height="40" fill="white" transform="translate(16 16)"/>
</clipPath>
</defs>
</svg>
