<svg width="72" height="72" viewBox="0 0 72 72" fill="none" xmlns="http://www.w3.org/2000/svg">
<g clip-path="url(#clip0_3940_2326)">
<path d="M16.0727 45.9346C16.1939 45.7426 16.3879 45.7306 16.6545 45.8986C22.7151 49.3782 29.3091 51.118 36.4364 51.118C41.1879 51.118 45.8788 50.2421 50.5091 48.4903C50.6303 48.4423 50.806 48.3703 51.0364 48.2743C51.2667 48.1783 51.4303 48.1063 51.5273 48.0583C51.8909 47.9144 52.1757 47.9864 52.3818 48.2743C52.5879 48.5623 52.5212 48.8262 52.1818 49.0662C51.7455 49.3782 51.1879 49.7382 50.5091 50.1461C48.4242 51.3699 46.0969 52.3178 43.5273 52.9898C40.9576 53.6617 38.4485 53.9976 36 53.9976C32.2182 53.9976 28.6424 53.3437 25.2727 52.0359C21.903 50.728 18.8848 48.8862 16.2182 46.5105C16.0727 46.3906 16 46.2705 16 46.1506C16 46.0786 16.0242 46.0066 16.0727 45.9346ZM27.0182 35.6758C27.0182 34.02 27.4303 32.6042 28.2545 31.4283C29.0788 30.2525 30.206 29.3646 31.6364 28.7647C32.9455 28.2127 34.5576 27.8168 36.4727 27.5768C37.1273 27.5048 38.1939 27.4088 39.6727 27.2888V26.6769C39.6727 25.1411 39.503 24.1092 39.1636 23.5813C38.6545 22.8614 37.8545 22.5014 36.7636 22.5014H36.4727C35.6727 22.5734 34.9818 22.8254 34.4 23.2573C33.8182 23.6893 33.4424 24.2892 33.2727 25.0571C33.1757 25.537 32.9333 25.813 32.5455 25.885L28.3636 25.3811C27.9515 25.2851 27.7455 25.0691 27.7455 24.7331C27.7455 24.6612 27.7576 24.5772 27.7818 24.4812C28.1939 22.3454 29.206 20.7616 30.8182 19.7297C32.4303 18.6979 34.3151 18.1219 36.4727 18.002H37.3818C40.1455 18.002 42.303 18.7099 43.8545 20.1257C44.0979 20.3668 44.3228 20.6254 44.5273 20.8996C44.7333 21.1756 44.8969 21.4215 45.0182 21.6375C45.1394 21.8535 45.2485 22.1655 45.3455 22.5734C45.4424 22.9813 45.5151 23.2633 45.5636 23.4193C45.6121 23.5753 45.6485 23.9113 45.6727 24.4272C45.6969 24.9431 45.7091 25.2491 45.7091 25.3451V34.056C45.7091 34.6799 45.8 35.2499 45.9818 35.7658C46.1636 36.2817 46.3394 36.6537 46.5091 36.8817C46.6788 37.1096 46.9576 37.4756 47.3455 37.9796C47.4909 38.1955 47.5636 38.3875 47.5636 38.5555C47.5636 38.7475 47.4667 38.9154 47.2727 39.0594C45.2606 40.7872 44.1697 41.7231 44 41.8671C43.7091 42.0831 43.3576 42.1071 42.9455 41.9391C42.606 41.6511 42.3091 41.3751 42.0545 41.1112C41.8 40.8472 41.6182 40.6552 41.5091 40.5352C41.4 40.4153 41.2242 40.1813 40.9818 39.8333C40.7394 39.4854 40.5697 39.2514 40.4727 39.1314C39.1151 40.5953 37.7818 41.5071 36.4727 41.8671C35.6485 42.1071 34.6303 42.227 33.4182 42.227C31.5515 42.227 30.0182 41.6571 28.8182 40.5173C27.6182 39.3774 27.0182 37.7636 27.0182 35.6758ZM33.2727 34.9559C33.2727 35.8918 33.5091 36.6417 33.9818 37.2056C34.4545 37.7696 35.0909 38.0515 35.8909 38.0515C35.9636 38.0515 36.0667 38.0396 36.2 38.0156C36.3333 37.9915 36.4242 37.9796 36.4727 37.9796C37.4909 37.7156 38.2788 37.0677 38.8364 36.0358C39.103 35.5798 39.303 35.0819 39.4364 34.542C39.5697 34.002 39.6424 33.5641 39.6545 33.2281C39.6667 32.8922 39.6727 32.3402 39.6727 31.5723V30.6724C38.2667 30.6724 37.2 30.7684 36.4727 30.9604C34.3394 31.5603 33.2727 32.8922 33.2727 34.9559ZM48.5455 46.5465C48.5939 46.4505 48.6667 46.3546 48.7636 46.2586C49.3697 45.8506 49.9515 45.5746 50.5091 45.4307C51.4303 45.1907 52.3273 45.0587 53.2 45.0347C53.4424 45.0107 53.6727 45.0227 53.8909 45.0707C54.9818 45.1667 55.6364 45.3467 55.8545 45.6106C55.9515 45.7546 56 45.9706 56 46.2586V46.5105C56 47.3504 55.7697 48.3403 55.3091 49.4802C54.8485 50.6201 54.206 51.5379 53.3818 52.2338C53.2606 52.3298 53.1515 52.3778 53.0545 52.3778C53.006 52.3778 52.9576 52.3658 52.9091 52.3418C52.7636 52.2698 52.7273 52.1378 52.8 51.9459C53.6969 49.8581 54.1455 48.4063 54.1455 47.5904C54.1455 47.3264 54.0969 47.1344 54 47.0145C53.7576 46.7265 53.0788 46.5825 51.9636 46.5825C51.5515 46.5825 51.0667 46.6065 50.5091 46.6545C49.903 46.7265 49.3455 46.7985 48.8364 46.8705C48.6909 46.8705 48.5939 46.8465 48.5455 46.7985C48.4969 46.7505 48.4848 46.7025 48.5091 46.6545C48.5091 46.6305 48.5212 46.5945 48.5455 46.5465Z" fill="#F3F3F3"/>
</g>
<defs>
<clipPath id="clip0_3940_2326">
<rect width="40" height="36" fill="white" transform="translate(16 18)"/>
</clipPath>
</defs>
</svg>
