<svg width="72" height="72" viewBox="0 0 72 72" fill="none" xmlns="http://www.w3.org/2000/svg">
<path d="M50.4565 25.9942C46.9951 23.4506 41.5198 23.0194 41.2853 23.0039C40.922 22.976 40.5755 23.1621 40.4259 23.4692C40.4124 23.4878 40.2935 23.7391 40.1611 24.1299C42.4503 24.4835 45.2629 25.1939 47.807 26.6363C48.2148 26.8658 48.3403 27.3559 48.0889 27.7282C47.9226 27.9732 47.6407 28.1066 47.3485 28.1066C47.192 28.1066 47.0326 28.0663 46.89 27.9856C42.5148 25.5072 37.053 25.3831 36 25.3831C34.947 25.3831 29.4816 25.5072 25.11 27.9856C24.7024 28.2183 24.1657 28.1035 23.9144 27.7313C23.6596 27.3559 23.7853 26.8689 24.1929 26.6363C26.7371 25.197 29.5495 24.4835 31.839 24.133C31.7065 23.7391 31.5876 23.4909 31.5774 23.4692C31.4245 23.1621 31.0815 22.9698 30.7146 23.0039C30.4803 23.0194 25.0047 23.4506 21.4959 26.0283C19.6651 27.5761 16 36.6214 16 44.4413C16 44.5809 16.0407 44.7144 16.1155 44.8354C18.6427 48.8928 25.5414 49.9537 27.1141 50C27.1209 50 27.1311 50 27.1413 50C27.4198 50 27.6814 49.8791 27.8444 49.6742L29.4341 47.6767C25.144 46.6654 22.9531 44.947 22.8274 44.8447C22.4674 44.5562 22.4334 44.0536 22.7527 43.7248C23.0686 43.3961 23.6189 43.3651 23.9789 43.6535C24.0299 43.6969 28.0652 46.8236 36 46.8236C43.9483 46.8236 47.9835 43.6845 48.0244 43.6535C48.3844 43.3681 48.9312 43.3961 49.2507 43.7278C49.5665 44.0566 49.5326 44.5562 49.1726 44.8447C49.0468 44.947 46.8561 46.6654 42.5659 47.6767L44.1555 49.6742C44.3185 49.8791 44.5801 50 44.8587 50C44.8689 50 44.8791 50 44.8857 50C46.4585 49.9537 53.3574 48.8928 55.8844 44.8354C55.9592 44.7144 56 44.5809 56 44.4413C56 36.6214 52.335 27.5762 50.4565 25.9942ZM30.3478 41.2649C28.6664 41.2649 27.3043 39.8443 27.3043 38.0886C27.3043 36.3329 28.6664 34.9122 30.3478 34.9122C32.0292 34.9122 33.3913 36.3329 33.3913 38.0886C33.3913 39.8443 32.0292 41.2649 30.3478 41.2649ZM41.6522 41.2649C39.9707 41.2649 38.6087 39.8443 38.6087 38.0886C38.6087 36.3329 39.9707 34.9122 41.6522 34.9122C43.3334 34.9122 44.6957 36.3329 44.6957 38.0886C44.6957 39.8443 43.3334 41.2649 41.6522 41.2649Z" fill="#F3F3F3"/>
</svg>
