<svg width="72" height="72" viewBox="0 0 72 72" fill="none" xmlns="http://www.w3.org/2000/svg">
<path fill-rule="evenodd" clip-rule="evenodd" d="M22.9024 17.049C21.5854 17.5613 20.4715 18.2444 19.3577 19.3584C18.2439 20.4643 17.561 21.5865 17.0488 22.8957C16.5528 24.1643 16.2195 25.6198 16.122 27.7504C16.0244 29.8809 16 30.5639 16 35.9959C16 41.4279 16.0244 42.111 16.122 44.2415C16.2195 46.372 16.561 47.8276 17.0488 49.0962C17.561 50.4135 18.2439 51.5275 19.3577 52.6416C20.4715 53.7556 21.5854 54.4387 22.9024 54.951C24.1707 55.447 25.626 55.7804 27.7561 55.878C29.8862 55.9756 30.5691 56 36 56C41.4309 56 42.1138 55.9756 44.2439 55.878C46.374 55.7804 47.8293 55.4389 49.0976 54.951C50.4146 54.4387 51.5285 53.7556 52.6423 52.6416C53.7561 51.5275 54.439 50.4135 54.9512 49.0962C55.4472 47.8276 55.7805 46.372 55.8781 44.2415C55.9756 42.111 56 41.4279 56 35.9959C56 30.5639 55.9756 29.8809 55.8781 27.7504C55.7805 25.6198 55.439 24.1643 54.9512 22.8957C54.439 21.5865 53.7561 20.4643 52.6504 19.3584C51.5366 18.2444 50.4228 17.5613 49.1057 17.049C47.8374 16.553 46.3821 16.2196 44.252 16.122C42.122 16.0244 41.439 16 36.0081 16C30.5772 16 29.8943 16.0244 27.7642 16.122C25.626 16.2114 24.1707 16.553 22.9024 17.049ZM44.0813 19.7162C46.0325 19.8057 47.0894 20.1309 47.7967 20.4074C48.7317 20.7733 49.3984 21.2043 50.0976 21.9036C50.7967 22.603 51.2276 23.2698 51.5935 24.2049C51.8699 24.9124 52.1951 25.9695 52.2846 27.9211C52.3821 30.0272 52.3984 30.6615 52.3984 36.0041C52.3984 41.3466 52.374 41.9809 52.2846 44.087C52.1951 46.0386 51.8699 47.0957 51.5935 47.8032C51.2276 48.7384 50.7967 49.4052 50.0976 50.1045C49.3984 50.8038 48.7317 51.2348 47.7967 51.6007C47.0894 51.8772 46.0325 52.2025 44.0813 52.2919C41.9756 52.3895 41.3415 52.4058 36 52.4058C30.6585 52.4058 30.0244 52.3814 27.9187 52.2919C25.9675 52.2025 24.9106 51.8772 24.2033 51.6007C23.2683 51.2348 22.6016 50.8038 21.9024 50.1045C21.2033 49.4052 20.7724 48.7384 20.4065 47.8032C20.1301 47.0957 19.8049 46.0386 19.7154 44.087C19.6179 41.9809 19.6016 41.3466 19.6016 36.0041C19.6016 30.6615 19.626 30.0272 19.7154 27.9211C19.8049 25.9695 20.1301 24.9124 20.4065 24.2049C20.7724 23.2698 21.2033 22.603 21.9024 21.9036C22.6016 21.2043 23.2683 20.7733 24.2033 20.4074C24.9106 20.1309 25.9675 19.8057 27.9187 19.7162C30.0244 19.6186 30.6585 19.6024 36 19.6024C41.3415 19.6024 41.9756 19.6186 44.0813 19.7162ZM25.7318 36.0041C25.7318 41.6801 30.3334 46.2745 36.0001 46.2745C41.6667 46.2745 46.2684 41.6719 46.2684 36.0041C46.2684 30.3363 41.6749 25.7337 36.0001 25.7337C30.3253 25.7337 25.7318 30.3282 25.7318 36.0041ZM42.6667 36.0041C42.6667 39.6878 39.683 42.6721 36.0001 42.6721C32.3171 42.6721 29.3334 39.6878 29.3334 36.0041C29.3334 32.3204 32.3171 29.3361 36.0001 29.3361C39.683 29.3361 42.6667 32.3204 42.6667 36.0041ZM49.0813 25.3269C49.0813 26.6518 48.0075 27.7258 46.6829 27.7258C45.3583 27.7258 44.2845 26.6518 44.2845 25.3269C44.2845 24.0021 45.3583 22.9281 46.6829 22.9281C48.0075 22.9281 49.0813 24.0021 49.0813 25.3269Z" fill="#F3F3F3"/>
</svg>
