<svg width="72" height="72" viewBox="0 0 72 72" fill="none" xmlns="http://www.w3.org/2000/svg">
<path fill-rule="evenodd" clip-rule="evenodd" d="M38.434 35.7954C38.434 41.7574 33.6358 46.5908 27.7168 46.5908C21.7978 46.5908 17 41.7574 17 35.7954C17 29.8334 21.7982 25 27.7172 25C33.6362 25 38.434 29.8334 38.434 35.7954ZM50.191 35.7952C50.191 41.4074 47.7917 45.9572 44.8324 45.9572C41.8731 45.9572 39.4738 41.4074 39.4738 35.7952C39.4738 30.1831 41.8731 25.6333 44.8324 25.6333C47.7921 25.6333 50.191 30.1827 50.191 35.7952ZM53.1153 44.9003C54.1561 44.9003 55 40.8241 55 35.7956C55 30.767 54.1564 26.6909 53.1153 26.6909C52.0741 26.6909 51.2306 30.767 51.2306 35.7956C51.2306 40.8241 52.0745 44.9003 53.1153 44.9003Z" fill="#F3F3F3"/>
</svg>
