<svg width="72" height="72" viewBox="0 0 72 72" fill="none" xmlns="http://www.w3.org/2000/svg">
<g clip-path="url(#clip0_3940_2319)">
<path d="M35.9923 16C24.9685 16 16 24.9692 16 35.9938C16 47.0253 24.9685 56 35.9923 56C47.0245 56 56 47.0253 56 35.9938C56 24.9692 47.0245 16 35.9923 16ZM25.8466 43.3403C28.1645 42.6348 30.541 42.277 32.9098 42.277C36.9329 42.277 40.9045 43.2965 44.3972 45.2265C44.605 45.3397 44.7938 45.714 44.8786 46.1799C44.9633 46.6458 44.9296 47.1249 44.7936 47.374C44.6219 47.6938 44.2736 47.9005 43.906 47.9005C43.7238 47.9005 43.5637 47.8595 43.4035 47.773C40.1972 46.0106 36.5687 45.0789 32.9098 45.0789C30.6993 45.0789 28.5292 45.4062 26.4616 46.0506C26.3609 46.0812 26.2573 46.0968 26.1537 46.0968C25.701 46.0969 25.3081 45.8085 25.1763 45.3806C24.9983 44.7955 25.3664 43.4973 25.8466 43.3403ZM24.9744 35.9742C27.5579 35.2719 30.2278 34.9157 32.9099 34.9157C37.7315 34.9157 42.5195 36.0824 46.7592 38.2913C47.0564 38.4421 47.2754 38.6978 47.3757 39.0113C47.4775 39.3288 47.4468 39.6702 47.288 39.9748C46.9096 40.7153 46.4674 41.2129 46.1873 41.2129C45.9887 41.2129 45.7971 41.1652 45.6063 41.0699C41.6694 39.0198 37.3978 37.9803 32.9098 37.9803C30.4134 37.9803 27.9642 38.3086 25.6325 38.9554C25.5241 38.9848 25.4127 38.9996 25.3019 38.9996C24.741 38.9997 24.2467 38.6208 24.1003 38.0799C23.9129 37.3763 24.3411 36.1464 24.9744 35.9742ZM24.7511 31.1614C24.6327 31.1907 24.5116 31.2054 24.3912 31.2054C23.7133 31.2055 23.1259 30.7474 22.9628 30.0923C22.7583 29.2631 23.2771 28.2998 24.0285 28.1106C26.9506 27.3928 29.9386 27.0289 32.9098 27.0289C38.6614 27.0289 44.1697 28.322 49.2837 30.873C49.6388 31.0483 49.9036 31.3507 50.0295 31.7246C50.1554 32.0989 50.1276 32.5018 49.9519 32.8577C49.7124 33.337 49.1949 33.8531 48.6245 33.8531C48.4046 33.8531 48.1788 33.8016 47.9788 33.7077C43.2812 31.3574 38.2113 30.1656 32.9099 30.1656C30.1854 30.1658 27.4405 30.5007 24.7511 31.1614Z" fill="#F3F3F3"/>
</g>
<defs>
<clipPath id="clip0_3940_2319">
<rect width="40" height="40" fill="white" transform="translate(16 16)"/>
</clipPath>
</defs>
</svg>
