<svg width="72" height="72" viewBox="0 0 72 72" fill="none" xmlns="http://www.w3.org/2000/svg">
<path d="M35.5205 16.3338C35.6852 15.8887 36.3148 15.8887 36.4795 16.3338L37.1745 18.212C40.0226 25.9089 46.0911 31.9774 53.788 34.8255L55.6662 35.5205C56.1113 35.6852 56.1113 36.3148 55.6662 36.4795L53.788 37.1745C46.0911 40.0226 40.0226 46.0911 37.1745 53.788L36.4795 55.6662C36.3148 56.1113 35.6852 56.1113 35.5205 55.6662L34.8255 53.788C31.9774 46.0911 25.9089 40.0226 18.212 37.1745L16.3338 36.4795C15.8887 36.3148 15.8887 35.6852 16.3338 35.5205L18.212 34.8255C25.9089 31.9774 31.9774 25.9089 34.8255 18.212L35.5205 16.3338Z" fill="#F3F3F3"/>
</svg>
