<svg width="72" height="72" viewBox="0 0 72 72" fill="none" xmlns="http://www.w3.org/2000/svg">
<path d="M48.7659 24.5546C48.5012 24.415 48.2434 24.2621 47.9937 24.0963C47.2674 23.6067 46.6014 23.0298 46.0103 22.378C44.5311 20.6523 43.9786 18.9015 43.7751 17.6757H43.7833C43.6133 16.6583 43.6836 16 43.6942 16H36.957V42.5637C36.957 42.9203 36.957 43.2728 36.9423 43.6211C36.9423 43.6644 36.9382 43.7044 36.9358 43.7511C36.9358 43.7703 36.9358 43.7903 36.9317 43.8103C36.9317 43.8153 36.9317 43.8203 36.9317 43.8253C36.8607 44.7784 36.561 45.6991 36.0591 46.5064C35.5572 47.3137 34.8685 47.9829 34.0534 48.455C33.2039 48.9478 32.2432 49.2063 31.2659 49.205C28.1269 49.205 25.5829 46.5951 25.5829 43.372C25.5829 40.1488 28.1269 37.5389 31.2659 37.5389C31.86 37.5384 32.4506 37.6337 33.0155 37.8214L33.0237 30.8268C31.3086 30.6009 29.5663 30.7398 27.9065 31.2349C26.2468 31.73 24.7057 32.5705 23.3804 33.7033C22.2192 34.7321 21.243 35.9596 20.4956 37.3306C20.2112 37.8306 19.1382 39.8396 19.0083 43.1003C18.9265 44.9511 19.4716 46.8685 19.7315 47.6609V47.6776C19.895 48.1442 20.5283 49.7366 21.5605 51.0791C22.3928 52.1559 23.3761 53.1019 24.4788 53.8864V53.8698L24.4951 53.8864C27.7567 56.1463 31.3729 55.998 31.3729 55.998C31.9989 55.9722 34.0959 55.998 36.4773 54.8472C39.1186 53.5715 40.6223 51.6707 40.6223 51.6707C41.5829 50.535 42.3468 49.2407 42.8811 47.8434C43.4907 46.2093 43.6942 44.2494 43.6942 43.4661V29.3735C43.776 29.4235 44.8645 30.1576 44.8645 30.1576C44.8645 30.1576 46.4328 31.1826 48.8795 31.85C50.6349 32.325 53 32.425 53 32.425V25.6054C52.1713 25.697 50.4887 25.4304 48.7659 24.5546Z" fill="#F3F3F3"/>
</svg>
