<svg width="72" height="72" viewBox="0 0 72 72" fill="none" xmlns="http://www.w3.org/2000/svg">
<path d="M51.9049 27.7132C51.9293 28.0929 51.9293 28.4726 51.9293 28.8558C51.9293 40.5329 43.6742 54 28.5793 54V53.993C24.1203 54 19.7538 52.6246 16 50.0313C16.6484 50.1152 17.3 50.1572 17.9533 50.159C21.6486 50.1625 25.2383 48.8273 28.1454 46.3687C24.6338 46.297 21.5543 43.8314 20.4786 40.2319C21.7087 40.4874 22.9762 40.4349 24.1836 40.0796C20.3551 39.2467 17.6007 35.6244 17.6007 31.4177C17.6007 31.3792 17.6007 31.3424 17.6007 31.3057C18.7414 31.9899 20.0187 32.3696 21.3252 32.4116C17.7193 29.8165 16.6078 24.6509 18.7853 20.6121C22.9519 26.133 29.0993 29.4893 35.6986 29.8445C35.0372 26.7752 35.9407 23.5589 38.0727 21.4013C41.378 18.0555 46.5765 18.227 49.6835 21.7845C51.5214 21.3943 53.283 20.6681 54.895 19.6392C54.2824 21.6848 53.0002 23.4224 51.2874 24.5266C52.9141 24.3201 54.5033 23.8512 56 23.1354C54.8982 24.9133 53.5105 26.462 51.9049 27.7132Z" fill="#F3F3F3"/>
</svg>
