<svg width="25" height="18" viewBox="0 0 25 18" fill="none" xmlns="http://www.w3.org/2000/svg">
<path d="M21.1739 2.57978C19.097 1.02536 15.8119 0.76187 15.6712 0.752385C15.4532 0.735327 15.2453 0.849073 15.1555 1.03673C15.1474 1.04811 15.0761 1.20166 14.9967 1.44051C16.3702 1.65661 18.0577 2.09069 19.5842 2.97218C19.8289 3.11245 19.9042 3.41196 19.7534 3.63944C19.6536 3.78918 19.4844 3.8707 19.3091 3.8707C19.2152 3.8707 19.1196 3.84605 19.034 3.79677C16.4089 2.28216 13.1318 2.20633 12.5 2.20633C11.8682 2.20633 8.58898 2.28216 5.96602 3.79677C5.72145 3.93893 5.39944 3.86881 5.24863 3.64133C5.09578 3.41196 5.17118 3.11434 5.41574 2.97218C6.94224 2.09261 8.62973 1.65661 10.0034 1.4424C9.9239 1.20166 9.85255 1.05001 9.84645 1.03673C9.75473 0.849073 9.5489 0.73154 9.32878 0.752385C9.18817 0.76187 5.90284 1.02536 3.79754 2.60062C2.69905 3.54654 0.5 9.0742 0.5 13.853C0.5 13.9383 0.524447 14.0199 0.569289 14.0938C2.08559 16.5734 6.22485 17.2217 7.16847 17.25C7.17254 17.25 7.17864 17.25 7.18477 17.25C7.35189 17.25 7.50882 17.1761 7.60665 17.0509L8.56044 15.8302C5.98639 15.2122 4.67187 14.162 4.59646 14.0995C4.38043 13.9233 4.36005 13.6161 4.55161 13.4152C4.74116 13.2143 5.07132 13.1953 5.28734 13.3716C5.31792 13.3981 7.73912 15.3089 12.5 15.3089C17.269 15.3089 19.6901 13.3905 19.7146 13.3716C19.9306 13.1972 20.2587 13.2143 20.4504 13.417C20.6399 13.6179 20.6196 13.9233 20.4036 14.0995C20.3281 14.162 19.0136 15.2122 16.4395 15.8302L17.3933 17.0509C17.4911 17.1761 17.648 17.25 17.8152 17.25C17.8214 17.25 17.8275 17.25 17.8314 17.25C18.7751 17.2217 22.9144 16.5734 24.4306 14.0938C24.4755 14.0199 24.5 13.9383 24.5 13.853C24.5 9.0742 22.301 3.54655 21.1739 2.57978ZM9.10868 11.9119C8.09985 11.9119 7.2826 11.0437 7.2826 9.97082C7.2826 8.89789 8.09985 8.0297 9.10868 8.0297C10.1175 8.0297 10.9348 8.89789 10.9348 9.97082C10.9348 11.0437 10.1175 11.9119 9.10868 11.9119ZM15.8913 11.9119C14.8824 11.9119 14.0652 11.0437 14.0652 9.97082C14.0652 8.89789 14.8824 8.0297 15.8913 8.0297C16.9 8.0297 17.7174 8.89789 17.7174 9.97082C17.7174 11.0437 16.9 11.9119 15.8913 11.9119Z" fill="#19CD99"/>
</svg>
