<svg width="24" height="24" viewBox="0 0 24 24" fill="none" xmlns="http://www.w3.org/2000/svg">
<path fill-rule="evenodd" clip-rule="evenodd" d="M8.25 6.5C8.25 5.39543 9.14543 4.5 10.25 4.5H16.75C17.8546 4.5 18.75 5.39543 18.75 6.5V15.25C18.75 16.3546 17.8546 17.25 16.75 17.25H16.4055C16.4672 17.0103 16.5 16.759 16.5 16.5V9.75C16.5 8.09315 15.1569 6.75 13.5 6.75H9C8.74103 6.75 8.48971 6.78281 8.25 6.84451V6.5ZM7.25 7.5C6.14543 7.5 5.25 8.39543 5.25 9.5V17.5C5.25 18.6046 6.14543 19.5 7.25 19.5H13.75C14.8546 19.5 15.75 18.6046 15.75 17.5V9.5C15.75 8.39543 14.8546 7.5 13.75 7.5H7.25Z" fill="#F3F3F3"/>
</svg>
