<svg width="365" height="84" viewBox="0 0 365 84" fill="none" xmlns="http://www.w3.org/2000/svg">
<path fill-rule="evenodd" clip-rule="evenodd" d="M160.895 48.4221V51.6567L149.519 51.6567V48.4221H160.895ZM69.8834 51.6577V54.8923L50.3811 54.8923V51.6577L69.8834 51.6577ZM263.28 59.7449V58.1225L237.277 58.1225V59.7449H234.027V61.3606H230.776V69.4471H234.027V69.4477H234.026V72.6823H256.779V74.2996H261.655V77.5361H256.779V80.7653H243.778V77.5361H238.902V75.919H230.776V80.7653H227.527V64.5963H219.401V77.5361H214.527V80.7653H204.775H201.523V77.5361H193.397V80.7707H198.273V83.9999H198.274H204.775H217.775V80.7707H222.651V83.9999H230.776V80.7709H237.277V83.9999L263.28 83.9999V80.7653L263.28 80.7649H269.781V71.0611H263.28V69.4477H256.779H242.153V67.8293H238.902V62.9795H242.153V61.3571H258.406V62.9795H261.655V66.2125H269.781V61.3606H266.532V59.7449H263.28ZM69.8834 83.9999V80.7707H74.7586V77.5361H66.6327V80.7653H56.8805H53.6307V77.5361H45.5048V80.7707H50.3797V83.9999H50.3811H56.8805H69.8834ZM134.891 80.7707V83.9999H121.889H115.388V80.7707H110.513V77.5361H118.639V80.7653H121.889H131.64V77.5361H136.515V64.5963H144.641V80.7653H147.892V83.9999H139.766L139.766 80.7707H134.891ZM99.1388 82.3826V83.9999H87.7625V80.7693H84.5089V74.2988H82.8838L82.8838 51.6567H79.6334V48.4221H82.8838H91.0097V51.6567V58.1225L99.1388 58.1225V61.3571H91.0097V74.2988H91.0096V80.7653H95.8864V77.5361H105.638V80.7707H102.387V82.3826H99.1388ZM69.8834 61.3571V58.1225H56.8805L50.3811 58.1225L50.3797 58.1225V61.3571H50.3811H56.8805L69.8834 61.3571ZM134.891 58.1225V61.3571L121.889 61.3571H115.388V58.1225L121.889 58.1225H134.891ZM217.775 61.3571V58.1225H204.775H198.274L198.273 58.1225V61.3571H198.274H204.775L217.775 61.3571ZM39.0045 83.9999V80.7653H35.7542L35.7542 61.3606H34.13V59.7449H30.8796V61.3606H27.6283V80.7653H24.3778V83.9999H39.0045ZM188.523 80.7653V83.9999H173.896V80.7653H177.145V61.3606H180.395V61.3571H172.269V62.9795H169.02V64.5952H165.769V66.2086H160.895V66.2122H162.519V67.8295H160.895V80.7653H164.143V83.9999H149.517V80.7653H152.769V51.6577L160.895 51.6577V62.974H164.144V61.3606H167.394V59.7449H170.644V58.1225L180.395 58.1225V59.7449H183.646V61.3606H185.271V80.7653H188.523ZM294.159 83.9999H308.786V80.7653H305.535V61.3606H303.91V59.7449H300.66V61.3606H297.409V80.7653H294.159V83.9999ZM14.6268 80.7653V83.9999H0.00011158L0.000111864 80.7653H3.25038L3.25038 61.3571H0L2.84155e-07 58.1225L11.3763 58.1225V59.7449V61.3571V62.974H14.6289V61.3606H17.8765V59.7449H21.1276V58.1225L30.8788 58.1225V61.3571H22.7521V62.9795H19.5045V64.5952H16.2518V66.2086H11.3763V66.2122H13.0011V67.8295H11.3763L11.3763 80.7653H14.6268ZM269.782 80.7653H273.032V51.6577L281.158 51.6577V62.974H284.408V61.3606H287.658V59.7449H290.909V58.1225L300.66 58.1225V61.3571H292.534V62.9795H289.284V64.5952H286.033V66.2086H281.158V80.7653H284.409V83.9999H269.782V80.7653ZM282.783 66.2122H281.158V67.8295H282.783V66.2122ZM281.158 48.4221V51.6567L269.781 51.6567V48.4221H281.158ZM53.6307 61.3606V64.5952H45.5048V61.3606H53.6307ZM118.639 64.5952V61.3606H110.513V64.5952H118.639ZM201.523 61.3606V64.5952H193.397V61.3606H201.523ZM74.7586 64.5952V61.3606H66.6327V64.5952H74.7586ZM139.766 61.3606V64.5952H131.64V61.3606H139.766ZM222.653 64.5952V61.3606H214.527V64.5952H222.653ZM48.7555 77.5347V64.5963H40.6295V77.5347H48.7555ZM113.764 64.5963V77.5347H105.638V64.5963H113.764ZM196.647 77.5347V64.5963H188.521V77.5347H196.647ZM79.6351 64.5963V77.5347H71.5092V64.5963H79.6351Z" fill="#F3F3F3"/>
<path d="M309.589 21.2628C307.892 24.1884 307.892 27.7927 309.589 30.7183L318.886 46.7517C320.584 49.6789 323.721 51.4811 327.115 51.4811H345.702C349.096 51.4811 352.233 49.6788 353.931 46.7514L363.228 30.7181C364.924 27.7926 364.924 24.1886 363.228 21.263L353.931 5.22967C352.233 2.3023 349.096 0.5 345.702 0.5H327.115C323.721 0.5 320.584 2.30221 318.886 5.22944L309.589 21.2628Z" fill="#F3F3F3" stroke="#F3F3F3"/>
<path fill-rule="evenodd" clip-rule="evenodd" d="M310.021 21.5136C308.415 24.2841 308.415 27.697 310.021 30.4675L312.356 34.4931H321.696V36.1814H313.335L317.74 43.7788H355.077L359.482 36.1814H347.886V34.4931H360.461L362.795 30.4673C364.402 27.6969 364.402 24.2843 362.795 21.5138L360.531 17.6098H348.417V15.9215H359.552L355.147 8.32403H317.67L313.264 15.9215H333.201V17.6098H312.285L310.021 21.5136ZM318.649 6.6357H354.168L353.498 5.48048C351.891 2.70805 348.919 1 345.702 1H327.115C323.898 1 320.926 2.70796 319.319 5.48027L318.649 6.6357ZM319.319 46.5009L318.719 45.4672H354.098L353.498 46.5006C351.891 49.2731 348.919 50.9811 345.702 50.9811H327.115C323.898 50.9811 320.926 49.2732 319.319 46.5009ZM333.176 36.1733H336.567H339.957V34.4863L342.5 34.4863V32.7995H345.043V29.4256H340.805L340.805 32.7993H338.262V34.4863L336.567 34.4863H333.176L331.481 34.4863V32.7993H327.243V34.4863L329.786 34.4863V36.1733H329.786H333.176ZM339.109 22.6775V24.3644H333.176H329.786H329.786V22.6775H329.786H333.176H339.109ZM340.805 14.2427V15.9297H337.414V14.2427H340.805ZM340.805 14.2425V13.399H339.109V14.2425H340.805ZM340.805 26.0511H337.414V27.7381H341.652H344.195H348.433V26.0511H345.043V12.5557H340.805V26.0511ZM331.481 24.3646V26.0515H328.938V32.799H324.7L324.7 26.0511H327.243V24.3646H331.481ZM320.423 25.2073H308.865V26.8956H320.423V25.2073ZM351.545 25.2073H363.951V26.8956H351.545V25.2073Z" fill="#000B00"/>
</svg>
