<svg width="267" height="73" viewBox="0 0 267 73" fill="none" xmlns="http://www.w3.org/2000/svg">
<g clip-path="url(#clip0_4117_108)">
<path d="M32.0841 52.5379C30.3043 52.5379 28.6517 52.2961 27.1262 51.8125C25.6007 51.329 24.3153 50.6037 23.2701 49.6365C22.2248 48.6694 21.4762 47.4605 21.0242 46.0099C20.6004 44.5592 20.5439 42.8668 20.8547 40.9325C21.0807 39.7094 21.3208 38.4863 21.5751 37.2632C21.8576 36.0401 22.1401 34.8028 22.4226 33.5512C23.3548 29.7112 25.0357 26.7957 27.4652 24.8045C29.8947 22.8134 33.1717 21.8179 37.2962 21.8179C39.0759 21.8179 40.7144 22.0739 42.2117 22.5859C43.7372 23.0694 45.0226 23.809 46.0678 24.8045C47.1413 25.8001 47.8899 27.0232 48.3137 28.4739C48.7657 29.9245 48.8222 31.617 48.4832 33.5512C48.2854 34.8028 48.0453 36.0401 47.7628 37.2632C47.5086 38.4863 47.2402 39.7094 46.9577 40.9325C45.9972 44.8294 44.3022 47.745 41.8727 49.6792C39.4432 51.585 36.1803 52.5379 32.0841 52.5379ZM32.6349 46.3939C34.1604 46.3939 35.5023 45.9388 36.6606 45.0285C37.8188 44.1183 38.6381 42.6677 39.1183 40.6765C39.4291 39.425 39.6974 38.2445 39.9234 37.1352C40.1777 36.0259 40.4037 34.8739 40.6014 33.6792C40.9687 31.6881 40.7992 30.2374 40.0929 29.3272C39.3867 28.417 38.2708 27.9619 36.7453 27.9619C35.2198 27.9619 33.8779 28.417 32.7197 29.3272C31.5897 30.2374 30.7846 31.6881 30.3043 33.6792C29.9936 34.8739 29.7111 36.0259 29.4568 37.1352C29.2308 38.2445 29.0048 39.425 28.7788 40.6765C28.4398 42.6677 28.6093 44.1183 29.2873 45.0285C29.9653 45.9388 31.0812 46.3939 32.6349 46.3939ZM52.9713 52.1112C52.6888 52.1112 52.4628 52.0117 52.2933 51.8125C52.1238 51.6134 52.0673 51.3574 52.1238 51.0445L57.9716 23.3112C58.0281 22.9983 58.1834 22.7423 58.4377 22.5432C58.6919 22.3441 58.9603 22.2445 59.2428 22.2445H70.5146C72.2378 22.2445 73.7916 22.4437 75.1758 22.8419C76.5883 23.2401 77.7607 23.8517 78.6929 24.6765C79.6252 25.5014 80.2749 26.5397 80.6422 27.7912C81.0094 29.0143 81.0236 30.4508 80.6846 32.1005C79.9783 35.3717 78.5376 37.7894 76.3623 39.3539C74.2153 40.9183 71.3197 41.7005 67.6754 41.7005H61.9548L60.0056 51.0445C59.9491 51.3574 59.7937 51.6134 59.5394 51.8125C59.3134 52.0117 59.0451 52.1112 58.7343 52.1112H52.9713ZM63.0566 35.8125H67.9297C69.0879 35.8125 70.1191 35.4997 71.0231 34.8739C71.9553 34.2481 72.5627 33.2952 72.8452 32.0152C72.9864 31.2757 73.0147 30.6214 72.9299 30.0525C72.8452 29.4837 72.5486 29.0285 72.0401 28.6872C71.5598 28.3459 70.8112 28.1752 69.7942 28.1752H64.7092L63.0566 35.8125ZM88.5147 52.1112C88.2039 52.1112 87.9638 52.0117 87.7943 51.8125C87.6248 51.6134 87.5683 51.3574 87.6248 51.0445L92.3284 28.9432H84.7857C84.5032 28.9432 84.2772 28.8437 84.1077 28.6445C83.9382 28.417 83.8817 28.161 83.9382 27.8765L84.9128 23.3112C84.9693 22.9983 85.1105 22.7423 85.3365 22.5432C85.5908 22.3441 85.8733 22.2445 86.184 22.2445H108.981C109.292 22.2445 109.518 22.3441 109.659 22.5432C109.829 22.7423 109.885 22.9983 109.829 23.3112L108.854 27.8765C108.798 28.161 108.642 28.417 108.388 28.6445C108.163 28.8437 107.894 28.9432 107.583 28.9432H100.041L95.3794 51.0445C95.3229 51.3574 95.1675 51.6134 94.9133 51.8125C94.6873 52.0117 94.4189 52.1112 94.1082 52.1112H88.5147ZM110.717 52.1112C110.406 52.1112 110.166 52.0117 109.997 51.8125C109.827 51.6134 109.771 51.3574 109.827 51.0445L115.717 23.3112C115.774 22.9983 115.929 22.7423 116.183 22.5432C116.438 22.3441 116.706 22.2445 116.989 22.2445H122.709C122.992 22.2445 123.218 22.3441 123.387 22.5432C123.557 22.7423 123.613 22.9983 123.557 23.3112L117.667 51.0445C117.61 51.3574 117.455 51.6134 117.2 51.8125C116.974 52.0117 116.72 52.1112 116.438 52.1112H110.717ZM128.101 52.1112C127.79 52.1112 127.55 52.0117 127.38 51.8125C127.211 51.6134 127.154 51.3574 127.211 51.0445L133.058 23.3112C133.115 22.9983 133.27 22.7423 133.525 22.5432C133.779 22.3441 134.061 22.2445 134.372 22.2445H138.949C139.401 22.2445 139.711 22.3725 139.881 22.6285C140.079 22.8561 140.206 23.041 140.262 23.1832L144.839 36.6659L155.178 23.1832C155.263 23.041 155.432 22.8561 155.687 22.6285C155.969 22.3725 156.336 22.2445 156.788 22.2445H161.365C161.676 22.2445 161.916 22.3441 162.085 22.5432C162.255 22.7423 162.311 22.9983 162.255 23.3112L156.407 51.0445C156.351 51.3574 156.195 51.6134 155.941 51.8125C155.687 52.0117 155.404 52.1112 155.093 52.1112H150.008C149.726 52.1112 149.5 52.0117 149.33 51.8125C149.161 51.6134 149.104 51.3574 149.161 51.0445L152.466 35.3005L145.983 43.9619C145.785 44.1894 145.545 44.417 145.262 44.6445C145.008 44.8437 144.683 44.9432 144.288 44.9432H142.084C141.689 44.9432 141.406 44.8437 141.237 44.6445C141.067 44.4454 140.94 44.2179 140.855 43.9619L137.847 34.9165L134.414 51.0445C134.358 51.3574 134.203 51.6134 133.948 51.8125C133.722 52.0117 133.468 52.1112 133.186 52.1112H128.101ZM165.481 52.1112C165.17 52.1112 164.93 52.0117 164.76 51.8125C164.591 51.6134 164.534 51.3574 164.591 51.0445L170.481 23.3112C170.537 22.9983 170.693 22.7423 170.947 22.5432C171.201 22.3441 171.47 22.2445 171.752 22.2445H177.473C177.755 22.2445 177.981 22.3441 178.151 22.5432C178.32 22.7423 178.377 22.9983 178.32 23.3112L172.43 51.0445C172.374 51.3574 172.218 51.6134 171.964 51.8125C171.738 52.0117 171.484 52.1112 171.201 52.1112H165.481ZM192.27 52.5379C189.445 52.5379 187.129 52.1397 185.321 51.3432C183.541 50.5468 182.256 49.4943 181.465 48.1859C180.702 46.849 180.434 45.441 180.66 43.9619C180.716 43.7343 180.829 43.5352 180.999 43.3645C181.196 43.1654 181.422 43.0659 181.677 43.0659H187.101C187.496 43.0659 187.779 43.137 187.948 43.2792C188.118 43.4214 188.287 43.6063 188.457 43.8339C188.57 44.2605 188.796 44.673 189.135 45.0712C189.474 45.4694 189.94 45.7965 190.533 46.0525C191.155 46.2801 191.917 46.3939 192.821 46.3939C194.46 46.3939 195.773 46.1379 196.762 45.6259C197.751 45.1139 198.33 44.417 198.5 43.5352C198.669 42.9094 198.556 42.3974 198.161 41.9992C197.793 41.5725 197.129 41.2028 196.169 40.8899C195.237 40.5485 193.98 40.2072 192.398 39.8659C190.335 39.4108 188.64 38.785 187.313 37.9885C185.985 37.1637 185.053 36.1254 184.516 34.8739C184.007 33.5939 183.937 32.0721 184.304 30.3085C184.869 27.6917 186.267 25.6294 188.499 24.1219C190.731 22.5859 193.626 21.8179 197.186 21.8179C199.022 21.8179 200.646 22.0739 202.059 22.5859C203.5 23.0979 204.7 23.7805 205.661 24.6339C206.621 25.4872 207.314 26.3974 207.737 27.3645C208.161 28.3032 208.302 29.2277 208.161 30.1379C208.133 30.3654 208.02 30.5788 207.822 30.7779C207.624 30.9485 207.398 31.0339 207.144 31.0339H201.466C201.183 31.0339 200.929 30.977 200.703 30.8632C200.505 30.7494 200.336 30.5645 200.195 30.3085C200.195 29.6828 199.87 29.1423 199.22 28.6872C198.57 28.2037 197.709 27.9619 196.635 27.9619C195.42 27.9619 194.403 28.1894 193.584 28.6445C192.765 29.0712 192.256 29.7397 192.059 30.6499C191.917 31.2188 191.988 31.7165 192.27 32.1432C192.581 32.5699 193.146 32.9397 193.965 33.2525C194.813 33.5654 195.971 33.8925 197.44 34.2339C199.926 34.7174 201.875 35.3717 203.288 36.1965C204.7 36.993 205.647 38.0028 206.127 39.2259C206.636 40.449 206.706 41.9423 206.339 43.7059C205.717 46.6072 204.206 48.8117 201.805 50.3192C199.432 51.7983 196.254 52.5379 192.27 52.5379ZM211.555 52.1112C211.245 52.1112 211.005 52.0117 210.835 51.8125C210.666 51.6134 210.609 51.3574 210.666 51.0445L216.513 23.3112C216.57 22.9983 216.725 22.7423 216.979 22.5432C217.234 22.3441 217.516 22.2445 217.827 22.2445H222.403C222.855 22.2445 223.166 22.3725 223.336 22.6285C223.533 22.8561 223.661 23.041 223.717 23.1832L228.294 36.6659L238.633 23.1832C238.718 23.041 238.887 22.8561 239.142 22.6285C239.424 22.3725 239.791 22.2445 240.243 22.2445H244.82C245.131 22.2445 245.371 22.3441 245.54 22.5432C245.71 22.7423 245.766 22.9983 245.71 23.3112L239.862 51.0445C239.805 51.3574 239.65 51.6134 239.396 51.8125C239.142 52.0117 238.859 52.1112 238.548 52.1112H233.463C233.181 52.1112 232.955 52.0117 232.785 51.8125C232.616 51.6134 232.559 51.3574 232.616 51.0445L235.921 35.3005L229.438 43.9619C229.24 44.1894 229 44.417 228.717 44.6445C228.463 44.8437 228.138 44.9432 227.743 44.9432H225.539C225.144 44.9432 224.861 44.8437 224.692 44.6445C224.522 44.4454 224.395 44.2179 224.31 43.9619L221.302 34.9165L217.869 51.0445C217.813 51.3574 217.657 51.6134 217.403 51.8125C217.177 52.0117 216.923 52.1112 216.64 52.1112H211.555Z" fill="#FF0420"/>
</g>
<defs>
<clipPath id="clip0_4117_108">
<rect width="226" height="32" fill="white" transform="translate(20 21)"/>
</clipPath>
</defs>
</svg>
