<svg width="48" height="32" viewBox="0 0 48 32" fill="none" xmlns="http://www.w3.org/2000/svg">
<path d="M32.9465 11.1047C32.9602 11.3163 32.9602 11.5278 32.9602 11.7414C32.9602 18.2471 28.3167 25.7502 19.8259 25.7502V25.7463C17.3176 25.7502 14.8615 24.9839 12.75 23.5391C13.1147 23.5859 13.4813 23.6093 13.8487 23.6103C15.9273 23.6122 17.9465 22.8683 19.5818 21.4985C17.6065 21.4586 15.8743 20.0849 15.2692 18.0794C15.9612 18.2218 16.6741 18.1925 17.3533 17.9946C15.1997 17.5305 13.6504 15.5124 13.6504 13.1687C13.6504 13.1472 13.6504 13.1267 13.6504 13.1063C14.292 13.4875 15.0105 13.699 15.7454 13.7224C13.7171 12.2766 13.0919 9.39858 14.3167 7.14842C16.6604 10.2243 20.1184 12.0943 23.8304 12.2922C23.4584 10.5822 23.9666 8.79021 25.1659 7.58812C27.0251 5.72403 29.9493 5.81958 31.697 7.80163C32.7308 7.58422 33.7217 7.17962 34.6284 6.60635C34.2838 7.74606 33.5626 8.71417 32.5992 9.32936C33.5142 9.21431 34.4081 8.95303 35.25 8.55428C34.6303 9.54482 33.8496 10.4076 32.9465 11.1047Z" fill="#7CF2D0"/>
</svg>
